<?xml version="1.0" encoding="UTF-8"?>
<!-- Created with Inkscape (http://www.inkscape.org/) -->
<svg id="icon" version="1.1" viewBox="0 0 226.56 168.32" xmlns="http://www.w3.org/2000/svg">
 <path d="m70.635 143.72c0 0.68186 0.1465 1.2052 0.43949 1.5699 0.31023 0.36471 0.88761 0.54707 1.7321 0.54707h1.3702c0.18959 0 0.35332 0.0634 0.4912 0.19028 0.13788 0.12686 0.20682 0.2775 0.20682 0.45193v0.76114c0 0.17443-0.06894 0.32507-0.20682 0.45192-0.13788 0.12686-0.30161 0.19029-0.4912 0.19029h-1.6287c-1.465 0-2.5422-0.34886-3.2316-1.0466-0.6894-0.71357-1.0341-1.7522-1.0341-3.1159v-11.437h-2.9785c-0.18959 0-0.35332-0.0634-0.4912-0.19028-0.13788-0.12686-0.20682-0.2775-0.20682-0.45193v-0.76114c0-0.17443 0.06894-0.32507 0.20682-0.45192 0.13788-0.12686 0.30161-0.19029 0.4912-0.19029h2.9785v-4.2322c0-0.17443 0.06894-0.32507 0.20682-0.45193 0.13788-0.12685 0.32141-0.10594 0.4912-0.19028 0 0 0.60852-0.35908 0.97864-0.48614 0.1793-0.0615 0.35332 0.0634 0.4912 0.19028 0.13788 0.12686 0.20764 0.27751 0.20682 0.45193l-0.0221 4.7183h3.7526c0.18959 0 0.35332 0.0634 0.4912 0.19029 0.13788 0.12685 0.20682 0.27749 0.20682 0.45192v0.76114c0 0.17443-0.06894 0.32507-0.20682 0.45193-0.13788 0.12685-0.46568 0.19028-0.65526 0.19028h-3.5885z" style="stroke-linecap:round;stroke-linejoin:round;stroke-width:.133;stroke:#000;white-space:pre"/>
 <path d="m103.89 143.73c0 0.68186 0.1465 1.2052 0.43949 1.5699 0.31023 0.36471 0.88761 0.54707 1.7321 0.54707h1.3702c0.18958 0 0.35331 0.0634 0.4912 0.19028 0.13788 0.12686 0.20682 0.2775 0.20682 0.45193v0.76114c0 0.17443-0.0689 0.32507-0.20682 0.45192-0.13789 0.12686-0.30162 0.19029-0.4912 0.19029h-1.6287c-1.465 0-2.5422-0.34886-3.2316-1.0466-0.6894-0.71357-1.0341-1.7522-1.0341-3.1159v-11.437h-2.9785c-0.18959 0-0.35332-0.0634-0.4912-0.19028-0.13788-0.12686-0.20682-0.2775-0.20682-0.45193v-0.76114c0-0.17443 0.06894-0.32507 0.20682-0.45192 0.13788-0.12686 0.30161-0.19029 0.4912-0.19029h2.9785v-4.2322c0-0.17443 0.0689-0.32507 0.20682-0.45193 0.13788-0.12685 0.32141-0.10594 0.4912-0.19028 0 0 0.60852-0.35908 0.97864-0.48614 0.1793-0.0615 0.35332 0.0634 0.4912 0.19028 0.13788 0.12686 0.20764 0.27751 0.20682 0.45193l-0.0221 4.7183h3.7526c0.18959 0 0.35332 0.0634 0.4912 0.19029 0.13788 0.12685 0.20682 0.27749 0.20682 0.45192v0.76114c0 0.17443-0.0689 0.32507-0.20682 0.45193-0.13788 0.12685-0.46568 0.19028-0.65526 0.19028h-3.5885z" style="stroke-linecap:round;stroke-linejoin:round;stroke-width:.133;stroke:#000;white-space:pre"/>
 <path d="m212.4 143.56c0 0.68186 0.1465 1.2052 0.43949 1.5699 0.31024 0.36471 0.88761 0.54707 1.7321 0.54707h1.3702c0.18958 0 0.35332 0.0634 0.4912 0.19028 0.13788 0.12686 0.20682 0.2775 0.20682 0.45193v0.76114c0 0.17443-0.0689 0.32507-0.20682 0.45192-0.13788 0.12686-0.30162 0.19029-0.4912 0.19029h-1.6287c-1.465 0-2.5422-0.34886-3.2316-1.0466-0.68941-0.71357-1.0341-1.7522-1.0341-3.1159v-11.437h-2.9785c-0.18958 0-0.35332-0.0634-0.4912-0.19028-0.13788-0.12686-0.20682-0.2775-0.20682-0.45193v-0.76114c0-0.17443 0.0689-0.32507 0.20682-0.45192 0.13788-0.12686 0.30162-0.19029 0.4912-0.19029h2.9785v-4.2322c0-0.17443 0.0689-0.32507 0.20682-0.45193 0.13788-0.12685 0.32141-0.10594 0.4912-0.19028 0 0 0.60852-0.35908 0.97865-0.48614 0.17929-0.0615 0.35332 0.0634 0.4912 0.19028 0.13788 0.12686 0.20764 0.27751 0.20682 0.45193l-0.0221 4.7183h3.7526c0.18959 0 0.35332 0.0634 0.4912 0.19029 0.13788 0.12685 0.20682 0.27749 0.20682 0.45192v0.76114c0 0.17443-0.0689 0.32507-0.20682 0.45193-0.13788 0.12685-0.46567 0.19028-0.65526 0.19028h-3.5885z" style="stroke-linecap:round;stroke-linejoin:round;stroke-width:.133;stroke:#000;white-space:pre"/>
 <path d="m29.463 130.64c0-0.176 0.064-0.328 0.192-0.456s0.28-0.192 0.456-0.192h0.888c0.176 0 0.328 0.064 0.456 0.192s0.192 0.28 0.192 0.456v6.336c0 4.0113-0.08044 5.9857 0.47461 7.0074 1.4934 2.464 4.4715 2.2994 5.7706 2.1226 1.0146-0.13807 2.501-1.3285 3.061-1.9525 0.576-0.624 0.8419-1.3371 0.8419-2.5371v-10.977c0-0.176 0.064-0.328 0.192-0.456s0.28-0.192 0.456-0.192h0.888c0.176 0 0.328 0.064 0.456 0.192s0.192 0.28 0.192 0.456v16.521c0 0.176-0.064 0.328-0.192 0.456s-0.28 0.192-0.456 0.192h-0.888c-0.176 0-0.328-0.064-0.456-0.192s-0.192-0.28-0.192-0.456v-1.4401c-0.832 1.088-2.949 2.3944-4.517 2.3944-1.536 0-4.1601-0.23693-6.1046-1.8709-0.912-0.96-1.7105-0.81359-1.7105-8.9078z" style="stroke-linecap:round;stroke-linejoin:round;white-space:pre"/>
 <path d="m54.238 129.67c-0.95672 6e-3 -2.2343 0.2682-3.4297 0.95117s-2.327 1.9281-2.3711 3.6699c-0.04234 1.6744 0.94805 2.9652 2.1621 3.7305 1.2141 0.76521 2.6729 1.1772 4.0352 1.5156 1.4833 0.36856 2.9748 0.66888 3.9707 1.1836 0.99592 0.51471 1.5003 1.0201 1.5195 2.3594 0.01484 1.0324-0.5612 1.796-1.5449 2.4141-0.98372 0.61805-2.3411 0.96485-3.3887 0.96485-1.1721 0-2.4967-0.15699-3.4746-0.73828-0.97792-0.5813-1.7332-1.516-1.8965-3.623-0.01563-0.5-2.0254-0.48632-1.9941 0.1543 0.20098 2.5932 1.3791 4.3018 2.8691 5.1875 1.49 0.88572 3.1682 1.0195 4.4961 1.0195 1.4524 0 3.0827-0.41172 4.4512-1.2715 1.3685-0.85976 2.5089-2.2918 2.4824-4.1348-0.02874-1.9998-1.2061-3.3862-2.6016-4.1074-1.3955-0.72123-3.0051-1.001-4.4082-1.3496-1.3025-0.32363-2.5941-0.72667-3.4492-1.2656-0.85508-0.53895-1.2525-1.0415-1.2285-1.9883 0.0239-0.94484 0.54698-1.518 1.3633-1.9844 0.8163-0.46637 1.9066-0.6838 2.4512-0.6875 1.2121-8e-3 2.6607 0.24807 3.6934 0.79882 1.0326 0.55076 1.6357 1.2364 1.6504 2.4668 0 0.70312 2.0312 0.67772 2-0.0254-0.02371-1.9791-1.2497-3.4287-2.709-4.207s-3.1673-1.0433-4.6484-1.0332z" style="-inkscape-stroke:none;color:#000000;stroke-linejoin:round"/>
 <path d="m10.031 125.43a1.5 1.5 0 0 0-1.5 1.5 1.5 1.5 0 0 0 1.5 1.5h9.1074v14.197c0 1.4971-1.6317 3.1328-4.5098 3.1328-1.3524 0-1.9585-0.43054-2.5176-1.0898-0.55911-0.65932-0.94792-1.6163-1.3027-2.5137a1.5 1.5 0 0 0-1.9473-0.84375 1.5 1.5 0 0 0-0.84375 1.9453c0.3388 0.85689 0.80561 2.1754 1.8047 3.3535 0.99907 1.1781 2.6556 2.1484 4.8066 2.1484 4.0976 0 7.5098-2.6212 7.5098-6.1328v-14.197h3.4941a1.5 1.5 0 0 0 1.5-1.5 1.5 1.5 0 0 0-1.5-1.5h-15.602z" style="-inkscape-stroke:none;color:#000000;stroke-linecap:round;stroke-linejoin:round"/>
 <path d="m88.998 125.7c-1.4251-0.0961-2.8521 0.0536-4.1641 0.40625-1.3119 0.35261-2.5207 0.91553-3.4902 1.7539s-1.7024 2.0183-1.8086 3.3906c-0.19138 2.4732 0.82422 4.3941 2.3496 5.2812 1.5254 0.88717 3.2007 1.0265 4.7637 1.3242 1.2734 0.24255 2.7366 0.65227 3.7168 1.3047 0.98023 0.65242 1.5247 1.3264 1.4746 2.8281-0.05275 1.5824-0.5856 2.2374-1.3691 2.7285s-1.9616 0.69544-3.0215 0.64062c-2.1609-0.11176-4.9163-1.2946-5.9492-2.6719a1.5 1.5 0 0 0-2.0996-0.30078 1.5 1.5 0 0 0-0.29883 2.0996c1.8839 2.5118 5.2277 3.7158 8.1934 3.8691 1.5034 0.0778 3.242-0.13751 4.7676-1.0938s2.6956-2.7768 2.7754-5.1719c0.08252-2.4757-1.2283-4.3727-2.8105-5.4258s-3.3908-1.4824-4.8164-1.7539c-1.6853-0.32101-3.1237-0.56667-3.8184-0.97071-0.69469-0.40403-1.0046-0.68173-0.86719-2.457 0.03744-0.48386 0.26065-0.90336 0.78125-1.3535 0.5206-0.45016 1.3351-0.86442 2.3047-1.125 1.9391-0.52118 4.4453-0.39629 6.2344 0.46679a1.5 1.5 0 0 0 2.0039-0.69922 1.5 1.5 0 0 0-0.69922-2.0039c-1.3041-0.62912-2.7272-0.97027-4.1523-1.0664z" style="-inkscape-stroke:none;color:#000000;stroke-linecap:round;stroke-linejoin:round"/>
 <path d="m193.77 126.75h8.0273zm4.0898 1.1699v17.035zm-4.1074 18.268h8.0273z" style="-inkscape-stroke:none;color:#000000;stroke-linecap:round;stroke-linejoin:round"/>
 <path d="m193.77 125.25a1.5002 1.5002 0 0 0 0 3h2.5898v16.438h-2.6074a1.5002 1.5002 0 0 0 0 3h8.0273a1.5002 1.5002 0 0 0 1.2812-0.75586 1.5002 1.5002 0 0 0-1.2812-2.2441h-2.4199v-16.438h2.4375a1.5002 1.5002 0 0 0 1.2812-0.75586 1.5002 1.5002 0 0 0-1.2812-2.2441z" style="-inkscape-stroke:none;color:#000000;fill-opacity:.98616;stroke-linecap:round;stroke-linejoin:round"/>
 <path d="m166.16 131.98c0.53301-0.72347 1.1326-1.2952 1.7989-1.7153 0.66627-0.44342 1.5546-0.66513 2.6651-0.66513 2.5984 0 4.4196 1.0152 5.4634 3.0456 0.64406-0.98019 1.377-1.727 2.1987-2.2404 0.82173-0.53677 1.8989-0.80516 3.2314-0.80516 2.1765 0 3.7866 0.68847 4.8304 2.0654 1.066 1.3769 1.599 3.3256 1.599 5.8461v9.6969c0 0.25671-0.0888 0.47842-0.26651 0.66513-0.17767 0.18671-0.38865 0.28006-0.63295 0.28006h-1.2326c-0.24429 0-0.45528-0.0933-0.63295-0.28006-0.17767-0.18671-0.26651-0.40842-0.26651-0.66513v-9.3468c0-4.2976-1.1072-6.0948-3.7279-6.0948-1.1993 0-2.4511 0.74821-3.1618 1.5884-0.71069 0.84017-0.97228 2.6044-0.97228 4.2614v9.5919c0 0.25671-0.0888 0.47842-0.26651 0.66513-0.17767 0.18671-0.38865 0.28006-0.63295 0.28006h-1.2326c-0.2443 0-0.45529-0.0933-0.63296-0.28006-0.17767-0.18671-0.2665-0.40842-0.2665-0.66513v-9.3468c0-5.86-2.3572-6.001-3.9466-5.9698-1.1991 0.0236-2.1386 0.62321-2.8493 1.4634-0.71069 0.84016-1.066 2.6044-1.066 4.2614v9.5919c0 0.25671-0.0888 0.47842-0.2665 0.66513-0.17768 0.18671-0.38867 0.28006-0.63296 0.28006h-1.2326c-0.2443 0-0.45528-0.0933-0.63295-0.28006-0.17767-0.18671-0.26651-0.40842-0.26651-0.66513v-16.313c0-0.25672 0.0888-0.47843 0.26651-0.66514 0.17767-0.18669 0.38865-0.28004 0.63295-0.28004h1.2326c0.24429 0 0.45528 0.0933 0.63296 0.28004 0.17767 0.18671 0.2665 0.40842 0.2665 0.66514z" style="stroke-linejoin:round;stroke-opacity:.98616;stroke-width:4.4523"/>
 <path d="m156.08 137.22v-0.46095c0-1.923-0.37473-2.6867-1.4242-3.8415-0.92216-0.74872-1.8818-0.86897-3.111-0.86897-0.94554 0-2.3848 0.19672-2.9285 0.52766-0.52005 0.3073-1.0717 0.75797-1.4119 1.1973-0.57272 0.71944-0.4833 1.3466-0.64878 1.4176-0.16546 0.0709-0.39003 0.10637-0.67369 0.10637h-1.0637c-0.26002 0-0.49259-0.0342-0.7404-0.17428-0.22035-0.14223-0.31871-0.31992-0.29507-0.57995 0.0709-0.70915 0.60228-1.9521 1.2169-2.6376 0.63824-0.70915 1.4774-1.2883 2.5175-1.7374 1.0401-0.44913 2.8457-0.70494 4.0276-0.70494 2.1984 0 3.9713 0.6146 5.3187 1.8438 1.371 1.2292 2.0566 2.9548 2.0566 5.1768v10.815c0 0.26003-0.0945 0.48459-0.28366 0.6737-0.18911 0.18911-0.41367 0.28366-0.6737 0.28366h-1.3119c-0.26002 0-0.48458-0.0945-0.67369-0.28366-0.18911-0.18911-0.28367-0.41367-0.28367-0.6737v-1.4538c-0.37821 0.85098-1.1819 1.5247-2.4111 2.0211s-2.4584 0.74461-3.6876 0.74461c-1.2056 0-2.2811-0.21275-3.2266-0.63824-0.94554-0.44913-1.6783-1.0519-2.1984-1.8083-0.49641-0.75643-0.74462-1.6074-0.74462-2.553 0-1.7729 0.66188-3.1557 1.9856-4.1486 1.3238-1.0164 3.0848-1.702 5.2832-2.0566zm-0.25412 2.5052s-3.7863-0.0997-4.3166-0.0334c-1.5365 0.23639-3.349 0.62642-4.2 1.1701-0.85099 0.52005-1.2765 1.5907-1.2765 2.3944 0 0.59096 0.33813 1.609 0.88182 2.0817s1.9898 0.70915 3.1008 0.70915c1.702 0 3.0848-0.48459 4.1486-1.4538 1.0637-0.96918 1.6619-2.4217 1.6619-3.9818z" style="stroke-linejoin:round;stroke-opacity:.98616;stroke-width:4.6228"/>
 <path d="m131.96 129.66c2.5832 0 4.6232 0.79323 6.12 2.3797 1.4968 1.5864 2.2452 3.7445 2.2452 6.4741v0.94487c0 0.93145 0.012 0.94488-0.97774 0.94488h-12.457v0.20997c0.0483 1.5398 0.5311 2.753 1.4485 3.6395 0.94153 0.86322 2.1486 1.2948 3.6213 1.2948 1.2071 0 2.1366-0.15165 2.7884-0.45494 0.67597-0.30329 1.2795-0.7349 1.8106-1.2948 0.58942-0.58942 0.69807-1.6978 0.84292-1.7678 0.169-0.07 0.38628-0.10499 0.65183-0.10499h1.0864c0.2897 0 0.49206-0.0473 0.68519 0.13935 0.19314 0.18664 0.15264 0.43953 0.1285 0.69616-0.0966 0.62991-0.61496 2.3847-1.2426 3.0613-0.60355 0.65325-1.5004 1.6038-2.6592 2.0704-1.1347 0.44327-2.4987 0.66491-4.0921 0.66491-1.5451 0-2.9212-0.33829-4.1283-1.0149-1.2071-0.69991-2.1728-1.6564-2.897-2.8696-0.70012-1.2132-1.1226-2.578-1.2674-4.0944-0.0483-0.69991-0.0724-1.2365-0.0724-1.6098 0-0.37329 0.0241-0.90988 0.0724-1.6098 0.14485-1.4465 0.56733-2.753 1.2674-3.9195 0.72425-1.1665 1.6779-2.0881 2.8608-2.7646 1.2071-0.67658 2.5953-1.0149 4.1645-1.0149zm5.6142 7.804v-0.10499c0-1.4232-0.82432-3.1292-1.7658-3.9691-0.9174-0.86322-2.3033-1.3169-3.8484-1.3169-1.4002 0-2.7941 0.43161-3.784 1.2948-0.96568 0.86322-1.5711 2.5914-1.5952 3.9912v0.10499z" style="stroke-linejoin:round;stroke-opacity:.98616;stroke-width:4.6412"/>
 <path d="m121.33 129.91c0.23197 8e-3 0.43254 0.0844 0.60133 0.2532 0.1688 0.16879 0.2532 0.36924 0.2532 0.60133v1.0128c0 0.23209-0.0844 0.43254-0.2532 0.60134-0.16879 0.16879-0.37565 0.3074-0.60133 0.25319 0 0-1.2169-0.79549-2.3218-0.7292-1.1449 0.0687-2.1772 1.1562-2.8102 1.7892-0.61188 0.61188-1.5365 2.2378-1.5365 3.4194v10.081c0 0.23209-0.0844 0.43254-0.25319 0.60133-0.1688 0.16879-0.36924 0.25319-0.60133 0.25319h-1.171c-0.23209 0-0.43254-0.0844-0.60133-0.25319s-0.25319-0.36924-0.25319-0.60133v-16.339c0-0.23209 0.0844-0.43254 0.25319-0.60133 0.16879-0.1688 0.36924-0.2532 0.60133-0.2532h1.171c0.23209 0 0.43253 0.0844 0.60133 0.2532 0.16879 0.16879 0.25319 0.36924 0.25319 0.60133v1.7324c0.42199-0.63298 1.5471-1.8264 2.1379-2.1218 0.59078-0.2954 1.5382-0.65065 2.4872-0.61987z" style="stroke-linejoin:round;stroke-opacity:.98616;stroke-width:4.1262"/>
 <path transform="rotate(-44.599)" d="m99.332 122.06a62.786 62.786 0 0 1-60.99 62.76" style="fill:none;stroke-linecap:round;stroke-linejoin:round;stroke-width:4;stroke:#000"/>
 <path transform="rotate(135.05)" d="m24.206-124.19a61.802 61.802 0 0 1-61.133 62.414" style="fill:none;stroke-linecap:round;stroke-linejoin:round;stroke-width:4;stroke:#000"/>
 <path transform="rotate(258.72)" d="m-34.967 98.729a46.831 46.831 0 0 1-46.325 47.295" style="fill:none;stroke-linecap:round;stroke-linejoin:round;stroke-width:4;stroke:#000"/>
 <path transform="rotate(78.176)" d="m129.53-99.232a46.831 46.831 0 0 1-46.325 47.295" style="fill:none;stroke-linecap:round;stroke-linejoin:round;stroke-width:4;stroke:#000"/>
 <path transform="rotate(258.72)" d="m-52.367 99a29.432 29.432 0 0 1-29.06 29.723 29.432 29.432 0 0 1-29.799-28.981 29.432 29.432 0 0 1 28.903-29.875 29.432 29.432 0 0 1 29.951 28.825" style="fill:none;stroke-linecap:round;stroke-linejoin:round;stroke-width:4;stroke:#000"/>
 <path d="m114.19 38.994a10.722 10.722 0 0 1 0.10157 0.08398 10.722 10.722 0 0 1 1.334 1.623 10.722 10.722 0 0 1 0.99219 1.8535 10.722 10.722 0 0 1 0.60937 2.0098 10.722 10.722 0 0 1 0.12305 0.75586 10.722 10.722 0 0 1 0.0703 0.76172 10.722 10.722 0 0 1 2e-3 0.02734 10.722 10.722 0 0 1 0 0.02539 10.722 10.722 0 0 1 2e-3 0.02734 10.722 10.722 0 0 1 2e-3 0.02539 10.722 10.722 0 0 1 0 0.02734 10.722 10.722 0 0 1 2e-3 0.02539 10.722 10.722 0 0 1 0 0.02734 10.722 10.722 0 0 1 2e-3 0.02539 10.722 10.722 0 0 1 0 0.02734 10.722 10.722 0 0 1 2e-3 0.02539 10.722 10.722 0 0 1 0 0.02734 10.722 10.722 0 0 1 0 0.02539 10.722 10.722 0 0 1 2e-3 0.02734 10.722 10.722 0 0 1 0 0.02539 10.722 10.722 0 0 1 0 0.02734 10.722 10.722 0 0 1 0 0.02539 10.722 10.722 0 0 1 2e-3 0.02734 10.722 10.722 0 0 1 0 0.02539 10.722 10.722 0 0 1 0 0.02734 10.722 10.722 0 0 1 0 0.02539 10.722 10.722 0 0 1 0 0.02734 10.722 10.722 0 0 1 0 0.02539 10.722 10.722 0 0 1 0 0.02734 10.722 10.722 0 0 1 0 0.02539 10.722 10.722 0 0 1 0 0.02734 10.722 10.722 0 0 1 0 0.02539 10.722 10.722 0 0 1-2e-3 0.02734 10.722 10.722 0 0 1 0 0.02539 10.722 10.722 0 0 1 0 0.02734 10.722 10.722 0 0 1-0.041 0.76562 10.722 10.722 0 0 1-0.0957 0.75781 10.722 10.722 0 0 1-0.14844 0.75195 10.722 10.722 0 0 1-0.20117 0.73828 10.722 10.722 0 0 1-0.25391 0.7207 10.722 10.722 0 0 1-0.30664 0.70312 10.722 10.722 0 0 1-0.35352 0.67774 10.722 10.722 0 0 1-0.40234 0.65234 10.722 10.722 0 0 1-0.44727 0.62109 10.722 10.722 0 0 1-0.49023 0.58594 10.722 10.722 0 0 1-0.53125 0.55273 10.722 10.722 0 0 1-0.56836 0.51172 10.722 10.722 0 0 1-0.60547 0.46875 10.722 10.722 0 0 1-0.63476 0.42578 10.722 10.722 0 0 1-0.66602 0.37891 10.722 10.722 0 0 1-0.68945 0.33008 10.722 10.722 0 0 1-0.71289 0.28125 10.722 10.722 0 0 1-0.7308 0.22858 10.722 10.722 0 0 1-0.74414 0.17773 10.722 10.722 0 0 1-2.0918 0.20703 10.722 10.722 0 0 1-2.0918-0.20508 10.722 10.722 0 0 1-2.0117-0.60938 10.722 10.722 0 0 1-1.8535-0.99023 10.722 10.722 0 0 1-1.625-1.332 10.722 10.722 0 0 1-1.334-1.623 10.722 10.722 0 0 1-0.99219-1.8535 10.722 10.722 0 0 1-0.61133-2.0117 10.722 10.722 0 0 1-0.13477-1.3672 22.129 22.129 0 0 0-0.08984 0.09961 22.129 22.129 0 0 0-1.752 2.627 22.129 22.129 0 0 0-1.3613 2.8496 22.129 22.129 0 0 0-0.94141 3.0137 22.129 22.129 0 0 0-0.50391 3.1172 22.129 22.129 0 0 0-0.05469 3.1562 22.129 22.129 0 0 0 0.39453 3.1328 22.129 22.129 0 0 0 0.83789 3.0449 22.129 22.129 0 0 0 1.2617 2.8926 22.129 22.129 0 0 0 1.6602 2.6855 22.129 22.129 0 0 0 2.0273 2.4219 22.129 22.129 0 0 0 2.3496 2.1094 22.129 22.129 0 0 0 2.627 1.752 22.129 22.129 0 0 0 2.8477 1.3613 22.129 22.129 0 0 0 3.0137 0.94141 22.129 22.129 0 0 0 3.1172 0.50391 22.129 22.129 0 0 0 3.1582 0.05469 22.129 22.129 0 0 0 3.1328-0.39648 22.129 22.129 0 0 0 1.0586-0.23828 22.129 22.129 0 0 0 1.0469-0.28906 22.129 22.129 0 0 0 1.0312-0.3418 22.129 22.129 0 0 0 1.0137-0.39258 22.129 22.129 0 0 0 0.99219-0.43945 22.129 22.129 0 0 0 0.9707-0.49024 22.129 22.129 0 0 0 0.94336-0.53516 22.129 22.129 0 0 0 0.91797-0.58203 22.129 22.129 0 0 0 0.88672-0.625 22.129 22.129 0 0 0 0.85742-0.66992 22.129 22.129 0 0 0 0.82031-0.70898 22.129 22.129 0 0 0 0.78711-0.75 22.129 22.129 0 0 0 0.74805-0.78711 22.129 22.129 0 0 0 0.70899-0.82226 22.129 22.129 0 0 0 0.66796-0.85742 22.129 22.129 0 0 0 0.625-0.88867 22.129 22.129 0 0 0 0.58008-0.91797 22.129 22.129 0 0 0 0.53516-0.94531 22.129 22.129 0 0 0 0.48828-0.96875 22.129 22.129 0 0 0 0.43945-0.99414 22.129 22.129 0 0 0 0.39063-1.0137 22.129 22.129 0 0 0 0.33984-1.0312 22.129 22.129 0 0 0 0.28906-1.0469 22.129 22.129 0 0 0 0.23829-1.0605 22.129 22.129 0 0 0 0.18359-1.0703 22.129 22.129 0 0 0 0.13281-1.0781 22.129 22.129 0 0 0 0.0801-1.082 22.129 22.129 0 0 0 2e-3 -0.02734 22.129 22.129 0 0 0 0-2e-3 22.129 22.129 0 0 0 0-2e-3 22.129 22.129 0 0 0 0-2e-3 22.129 22.129 0 0 0 0-2e-3 22.129 22.129 0 0 0 0-2e-3 22.129 22.129 0 0 0 0-2e-3 22.129 22.129 0 0 0 0-2e-3 22.129 22.129 0 0 0 0-2e-3 22.129 22.129 0 0 0 0-2e-3 22.129 22.129 0 0 0 0-2e-3 22.129 22.129 0 0 0 0-2e-3 22.129 22.129 0 0 0 0-2e-3 22.129 22.129 0 0 0 0-2e-3 22.129 22.129 0 0 0 2e-3 -0.02734 22.129 22.129 0 0 0 0-2e-3 22.129 22.129 0 0 0 0-2e-3 22.129 22.129 0 0 0 0-2e-3 22.129 22.129 0 0 0 0-2e-3 22.129 22.129 0 0 0 0-2e-3 22.129 22.129 0 0 0 0-2e-3 22.129 22.129 0 0 0 0-2e-3 22.129 22.129 0 0 0 0-2e-3 22.129 22.129 0 0 0 0-2e-3 22.129 22.129 0 0 0 0-2e-3 22.129 22.129 0 0 0 0-2e-3 22.129 22.129 0 0 0 0-2e-3 22.129 22.129 0 0 0 0-2e-3 22.129 22.129 0 0 0 2e-3 -0.02734 22.129 22.129 0 0 0 2e-3 -0.02539 22.129 22.129 0 0 0 0-2e-3 22.129 22.129 0 0 0 0-2e-3 22.129 22.129 0 0 0 0-2e-3 22.129 22.129 0 0 0 0-2e-3 22.129 22.129 0 0 0 0-2e-3 22.129 22.129 0 0 0 0-2e-3 22.129 22.129 0 0 0 0-2e-3 22.129 22.129 0 0 0 0-2e-3 22.129 22.129 0 0 0 0-2e-3 22.129 22.129 0 0 0 0-2e-3 22.129 22.129 0 0 0 0-2e-3 22.129 22.129 0 0 0 0-2e-3 22.129 22.129 0 0 0 0-2e-3 22.129 22.129 0 0 0 0-2e-3 22.129 22.129 0 0 0 2e-3 -0.02539 22.129 22.129 0 0 0 0-2e-3 22.129 22.129 0 0 0 0-2e-3 22.129 22.129 0 0 0 0-2e-3 22.129 22.129 0 0 0 0-2e-3 22.129 22.129 0 0 0 0-2e-3 22.129 22.129 0 0 0 0-2e-3 22.129 22.129 0 0 0 0-2e-3 22.129 22.129 0 0 0 0-2e-3 22.129 22.129 0 0 0 0-2e-3 22.129 22.129 0 0 0 0-2e-3 22.129 22.129 0 0 0 0-2e-3 22.129 22.129 0 0 0 0-2e-3 22.129 22.129 0 0 0 0-2e-3 22.129 22.129 0 0 0 0-2e-3 22.129 22.129 0 0 0 2e-3 -0.02734 22.129 22.129 0 0 0 0-2e-3 22.129 22.129 0 0 0 0-2e-3 22.129 22.129 0 0 0 0-2e-3 22.129 22.129 0 0 0 0-2e-3 22.129 22.129 0 0 0 0-2e-3 22.129 22.129 0 0 0 0-2e-3 22.129 22.129 0 0 0 0-2e-3 22.129 22.129 0 0 0 0-2e-3 22.129 22.129 0 0 0 0-2e-3 22.129 22.129 0 0 0 0-2e-3 22.129 22.129 0 0 0 0-2e-3 22.129 22.129 0 0 0 0-2e-3 22.129 22.129 0 0 0 0-2e-3 22.129 22.129 0 0 0 2e-3 -0.02734 22.129 22.129 0 0 0 0-2e-3 22.129 22.129 0 0 0 0-2e-3 22.129 22.129 0 0 0 0-2e-3 22.129 22.129 0 0 0 0-2e-3 22.129 22.129 0 0 0 0-2e-3 22.129 22.129 0 0 0 0-2e-3 22.129 22.129 0 0 0 0-2e-3 22.129 22.129 0 0 0 0-2e-3 22.129 22.129 0 0 0 0-2e-3 22.129 22.129 0 0 0 0-2e-3 22.129 22.129 0 0 0 0-2e-3 22.129 22.129 0 0 0 0-2e-3 22.129 22.129 0 0 0 0-2e-3 22.129 22.129 0 0 0 2e-3 -0.02734 22.129 22.129 0 0 0 0-2e-3 22.129 22.129 0 0 0 0-2e-3 22.129 22.129 0 0 0 0-2e-3 22.129 22.129 0 0 0 0-2e-3 22.129 22.129 0 0 0 0-2e-3 22.129 22.129 0 0 0 0-2e-3 22.129 22.129 0 0 0 0-2e-3 22.129 22.129 0 0 0 0-2e-3 22.129 22.129 0 0 0 0-2e-3 22.129 22.129 0 0 0 0-2e-3 22.129 22.129 0 0 0 0-2e-3 22.129 22.129 0 0 0 0-2e-3 22.129 22.129 0 0 0 0-2e-3 22.129 22.129 0 0 0 0-2e-3 22.129 22.129 0 0 0 0-2e-3 22.129 22.129 0 0 0 0-2e-3 22.129 22.129 0 0 0 0-2e-3 22.129 22.129 0 0 0 0-2e-3 22.129 22.129 0 0 0 0-2e-3 22.129 22.129 0 0 0 0-2e-3 22.129 22.129 0 0 0 0-2e-3 22.129 22.129 0 0 0 0-2e-3 22.129 22.129 0 0 0 0-2e-3 22.129 22.129 0 0 0 0-2e-3 22.129 22.129 0 0 0 0-2e-3 22.129 22.129 0 0 0 0-2e-3 22.129 22.129 0 0 0 0-2e-3 22.129 22.129 0 0 0 2e-3 -0.02539 22.129 22.129 0 0 0 0-2e-3 22.129 22.129 0 0 0 0-2e-3 22.129 22.129 0 0 0 0-2e-3 22.129 22.129 0 0 0 0-2e-3 22.129 22.129 0 0 0 0-2e-3 22.129 22.129 0 0 0 0-2e-3 22.129 22.129 0 0 0 0-2e-3 22.129 22.129 0 0 0 0-2e-3 22.129 22.129 0 0 0 0-2e-3 22.129 22.129 0 0 0 0-2e-3 22.129 22.129 0 0 0 0-2e-3 22.129 22.129 0 0 0 0-2e-3 22.129 22.129 0 0 0 0-2e-3 22.129 22.129 0 0 0 0-2e-3 22.129 22.129 0 0 0 0-2e-3 22.129 22.129 0 0 0 0-2e-3 22.129 22.129 0 0 0 0-2e-3 22.129 22.129 0 0 0 0-2e-3 22.129 22.129 0 0 0 0-2e-3 22.129 22.129 0 0 0 0-2e-3 22.129 22.129 0 0 0 0-2e-3 22.129 22.129 0 0 0 0-2e-3 22.129 22.129 0 0 0 0-2e-3 22.129 22.129 0 0 0 0-2e-3 22.129 22.129 0 0 0 0-2e-3 22.129 22.129 0 0 0 0-2e-3 22.129 22.129 0 0 0 0-2e-3 22.129 22.129 0 0 0 0-2e-3 22.129 22.129 0 0 0 2e-3 -0.02539 22.129 22.129 0 0 0 0-2e-3 22.129 22.129 0 0 0 0-2e-3 22.129 22.129 0 0 0 0-2e-3 22.129 22.129 0 0 0 0-2e-3 22.129 22.129 0 0 0 0-2e-3 22.129 22.129 0 0 0 0-2e-3 22.129 22.129 0 0 0 0-2e-3 22.129 22.129 0 0 0 0-2e-3 22.129 22.129 0 0 0 0-2e-3 22.129 22.129 0 0 0 0-2e-3 22.129 22.129 0 0 0 0-2e-3 22.129 22.129 0 0 0 0-2e-3 22.129 22.129 0 0 0 0-2e-3 22.129 22.129 0 0 0 0-2e-3 22.129 22.129 0 0 0 0-2e-3 22.129 22.129 0 0 0 0-2e-3 22.129 22.129 0 0 0 0-2e-3 22.129 22.129 0 0 0 0-2e-3 22.129 22.129 0 0 0 0-2e-3 22.129 22.129 0 0 0 0-2e-3 22.129 22.129 0 0 0 0-2e-3 22.129 22.129 0 0 0 0-2e-3 22.129 22.129 0 0 0 0-2e-3 22.129 22.129 0 0 0 0-2e-3 22.129 22.129 0 0 0 0-2e-3 22.129 22.129 0 0 0 0-2e-3 22.129 22.129 0 0 0 0-2e-3 22.129 22.129 0 0 0 2e-3 -0.02734 22.129 22.129 0 0 0 0-2e-3 22.129 22.129 0 0 0 0-2e-3 22.129 22.129 0 0 0 0-2e-3 22.129 22.129 0 0 0 0-2e-3 22.129 22.129 0 0 0 0-2e-3 22.129 22.129 0 0 0 0-2e-3 22.129 22.129 0 0 0 0-2e-3 22.129 22.129 0 0 0 0-2e-3 22.129 22.129 0 0 0 0-2e-3 22.129 22.129 0 0 0 0-2e-3 22.129 22.129 0 0 0 0-2e-3 22.129 22.129 0 0 0 0-2e-3 22.129 22.129 0 0 0 0-2e-3 22.129 22.129 0 0 0 0-2e-3 22.129 22.129 0 0 0 0-2e-3 22.129 22.129 0 0 0 0-2e-3 22.129 22.129 0 0 0 0-2e-3 22.129 22.129 0 0 0 0-2e-3 22.129 22.129 0 0 0 0-2e-3 22.129 22.129 0 0 0 0-2e-3 22.129 22.129 0 0 0 0-2e-3 22.129 22.129 0 0 0 0-2e-3 22.129 22.129 0 0 0 0-2e-3 22.129 22.129 0 0 0 0-2e-3 22.129 22.129 0 0 0 0-2e-3 22.129 22.129 0 0 0 0-2e-3 22.129 22.129 0 0 0 0-2e-3 22.129 22.129 0 0 0 0-2e-3 22.129 22.129 0 0 0 0-2e-3 22.129 22.129 0 0 0 0-2e-3 22.129 22.129 0 0 0 0-2e-3 22.129 22.129 0 0 0 0-2e-3 22.129 22.129 0 0 0 0-2e-3 22.129 22.129 0 0 0 0-2e-3 22.129 22.129 0 0 0 0-2e-3 22.129 22.129 0 0 0 0-2e-3 22.129 22.129 0 0 0 0-2e-3 22.129 22.129 0 0 0 0-2e-3 22.129 22.129 0 0 0 0-2e-3 22.129 22.129 0 0 0 0-2e-3 22.129 22.129 0 0 0 0-2e-3 22.129 22.129 0 0 0 2e-3 -0.02539 22.129 22.129 0 0 0 0-2e-3 22.129 22.129 0 0 0 0-2e-3 22.129 22.129 0 0 0 0-2e-3 22.129 22.129 0 0 0 0-2e-3 22.129 22.129 0 0 0 0-2e-3 22.129 22.129 0 0 0 0-2e-3 22.129 22.129 0 0 0 0-2e-3 22.129 22.129 0 0 0 0-2e-3 22.129 22.129 0 0 0 0-2e-3 22.129 22.129 0 0 0 0-2e-3 22.129 22.129 0 0 0 0-2e-3 22.129 22.129 0 0 0 0-2e-3 22.129 22.129 0 0 0 0-2e-3 22.129 22.129 0 0 0 0-2e-3 22.129 22.129 0 0 0 0-2e-3 22.129 22.129 0 0 0 0-2e-3 22.129 22.129 0 0 0 0-2e-3 22.129 22.129 0 0 0 0-2e-3 22.129 22.129 0 0 0 0-2e-3 22.129 22.129 0 0 0 0-2e-3 22.129 22.129 0 0 0 0-2e-3 22.129 22.129 0 0 0 0-2e-3 22.129 22.129 0 0 0 0-2e-3 22.129 22.129 0 0 0 0-2e-3 22.129 22.129 0 0 0 0-2e-3 22.129 22.129 0 0 0 0-2e-3 22.129 22.129 0 0 0 0-2e-3 22.129 22.129 0 0 0 0-2e-3 22.129 22.129 0 0 0 0-2e-3 22.129 22.129 0 0 0 0-2e-3 22.129 22.129 0 0 0 0-2e-3 22.129 22.129 0 0 0 0-2e-3 22.129 22.129 0 0 0 0-2e-3 22.129 22.129 0 0 0 0-2e-3 22.129 22.129 0 0 0 0-2e-3 22.129 22.129 0 0 0 0-2e-3 22.129 22.129 0 0 0 0-2e-3 22.129 22.129 0 0 0 0-2e-3 22.129 22.129 0 0 0 0-2e-3 22.129 22.129 0 0 0 0-2e-3 22.129 22.129 0 0 0 0-2e-3 22.129 22.129 0 0 0 0-2e-3 22.129 22.129 0 0 0 0-2e-3 22.129 22.129 0 0 0 0-2e-3 22.129 22.129 0 0 0 0-2e-3 22.129 22.129 0 0 0 0-2e-3 22.129 22.129 0 0 0 0-2e-3 22.129 22.129 0 0 0 0-2e-3 22.129 22.129 0 0 0 0-2e-3 22.129 22.129 0 0 0 0-2e-3 22.129 22.129 0 0 0 0-2e-3 22.129 22.129 0 0 0 0-2e-3 22.129 22.129 0 0 0 0-2e-3 22.129 22.129 0 0 0 0-2e-3 22.129 22.129 0 0 0 0-2e-3 22.129 22.129 0 0 0 0-2e-3 22.129 22.129 0 0 0 0-2e-3 22.129 22.129 0 0 0 0-2e-3 22.129 22.129 0 0 0 0-2e-3 22.129 22.129 0 0 0 0-2e-3 22.129 22.129 0 0 0 0-2e-3 22.129 22.129 0 0 0 0-2e-3 22.129 22.129 0 0 0 0-2e-3 22.129 22.129 0 0 0 0-2e-3 22.129 22.129 0 0 0 0-2e-3 22.129 22.129 0 0 0 0-2e-3 22.129 22.129 0 0 0 0-2e-3 22.129 22.129 0 0 0 0-2e-3 22.129 22.129 0 0 0 2e-3 -0.02539 22.129 22.129 0 0 0 0-2e-3 22.129 22.129 0 0 0 0-2e-3 22.129 22.129 0 0 0 0-2e-3 22.129 22.129 0 0 0 0-2e-3 22.129 22.129 0 0 0 0-2e-3 22.129 22.129 0 0 0 0-2e-3 22.129 22.129 0 0 0 0-2e-3 22.129 22.129 0 0 0 0-2e-3 22.129 22.129 0 0 0 0-2e-3 22.129 22.129 0 0 0 0-2e-3 22.129 22.129 0 0 0 0-2e-3 22.129 22.129 0 0 0 0-2e-3 22.129 22.129 0 0 0 0-2e-3 22.129 22.129 0 0 0 0-2e-3 22.129 22.129 0 0 0 0-2e-3 22.129 22.129 0 0 0 0-2e-3 22.129 22.129 0 0 0 0-2e-3 22.129 22.129 0 0 0 0-2e-3 22.129 22.129 0 0 0 0-2e-3 22.129 22.129 0 0 0 0-2e-3 22.129 22.129 0 0 0 0-2e-3 22.129 22.129 0 0 0 0-2e-3 22.129 22.129 0 0 0 0-2e-3 22.129 22.129 0 0 0 0-2e-3 22.129 22.129 0 0 0 0-2e-3 22.129 22.129 0 0 0 0-2e-3 22.129 22.129 0 0 0 0-2e-3 22.129 22.129 0 0 0 0-2e-3 22.129 22.129 0 0 0 0-2e-3 22.129 22.129 0 0 0 0-2e-3 22.129 22.129 0 0 0 0-2e-3 22.129 22.129 0 0 0 0-2e-3 22.129 22.129 0 0 0 0-2e-3 22.129 22.129 0 0 0 0-2e-3 22.129 22.129 0 0 0 0-2e-3 22.129 22.129 0 0 0 0-2e-3 22.129 22.129 0 0 0 0-2e-3 22.129 22.129 0 0 0 0-2e-3 22.129 22.129 0 0 0 0-2e-3 22.129 22.129 0 0 0 0-2e-3 22.129 22.129 0 0 0 0-2e-3 22.129 22.129 0 0 0 0-2e-3 22.129 22.129 0 0 0 0-2e-3 22.129 22.129 0 0 0 0-2e-3 22.129 22.129 0 0 0 0-2e-3 22.129 22.129 0 0 0 0-2e-3 22.129 22.129 0 0 0 0-2e-3 22.129 22.129 0 0 0 0-2e-3 22.129 22.129 0 0 0 0-2e-3 22.129 22.129 0 0 0 0-2e-3 22.129 22.129 0 0 0 0-2e-3 22.129 22.129 0 0 0 0-2e-3 22.129 22.129 0 0 0 0-2e-3 22.129 22.129 0 0 0 0-2e-3 22.129 22.129 0 0 0 0-2e-3 22.129 22.129 0 0 0 0-2e-3 22.129 22.129 0 0 0 0-2e-3 22.129 22.129 0 0 0 0-2e-3 22.129 22.129 0 0 0 0-2e-3 22.129 22.129 0 0 0 0-2e-3 22.129 22.129 0 0 0 0-2e-3 22.129 22.129 0 0 0 0-2e-3 22.129 22.129 0 0 0 0-2e-3 22.129 22.129 0 0 0 0-2e-3 22.129 22.129 0 0 0 0-2e-3 22.129 22.129 0 0 0 0-2e-3 22.129 22.129 0 0 0 0-2e-3 22.129 22.129 0 0 0 0-2e-3 22.129 22.129 0 0 0 0-2e-3 22.129 22.129 0 0 0 0-2e-3 22.129 22.129 0 0 0 0-2e-3 22.129 22.129 0 0 0 0-2e-3 22.129 22.129 0 0 0 0-2e-3 22.129 22.129 0 0 0 0-2e-3 22.129 22.129 0 0 0 0-2e-3 22.129 22.129 0 0 0 0-2e-3 22.129 22.129 0 0 0 0-2e-3 22.129 22.129 0 0 0 0-2e-3 22.129 22.129 0 0 0 0-2e-3 22.129 22.129 0 0 0 0-2e-3 22.129 22.129 0 0 0 0-2e-3 22.129 22.129 0 0 0 0-2e-3 22.129 22.129 0 0 0 0-2e-3 22.129 22.129 0 0 0 0-2e-3 22.129 22.129 0 0 0 0-2e-3 22.129 22.129 0 0 0 0-2e-3 22.129 22.129 0 0 0 0-2e-3 22.129 22.129 0 0 0 0-2e-3 22.129 22.129 0 0 0 0-2e-3 22.129 22.129 0 0 0 0-2e-3 22.129 22.129 0 0 0 0-2e-3 22.129 22.129 0 0 0 0-2e-3 22.129 22.129 0 0 0 0-2e-3 22.129 22.129 0 0 0 0-2e-3 22.129 22.129 0 0 0 0-2e-3 22.129 22.129 0 0 0 0-2e-3 22.129 22.129 0 0 0 0-2e-3 22.129 22.129 0 0 0 0-2e-3 22.129 22.129 0 0 0 0-2e-3 22.129 22.129 0 0 0 0-2e-3 22.129 22.129 0 0 0 0-2e-3 22.129 22.129 0 0 0 0-2e-3 22.129 22.129 0 0 0 0-2e-3 22.129 22.129 0 0 0 0-2e-3 22.129 22.129 0 0 0 0-2e-3 22.129 22.129 0 0 0 0-2e-3 22.129 22.129 0 0 0 0-2e-3 22.129 22.129 0 0 0 0-2e-3 22.129 22.129 0 0 0 0-2e-3 22.129 22.129 0 0 0-0.0273-1.0859 22.129 22.129 0 0 0-0.0801-1.084 22.129 22.129 0 0 0-0.13477-1.0781 22.129 22.129 0 0 0-0.18554-1.0703 22.129 22.129 0 0 0-0.83789-3.043 22.129 22.129 0 0 0-1.2617-2.8945 22.129 22.129 0 0 0-1.6602-2.6855 22.129 22.129 0 0 0-2.0254-2.4219 22.129 22.129 0 0 0-2.3516-2.1094 22.129 22.129 0 0 0-2.625-1.752 22.129 22.129 0 0 0-2.8496-1.3613 22.129 22.129 0 0 0-3.0137-0.94141 22.129 22.129 0 0 0-3.1172-0.50391 22.129 22.129 0 0 0-1.2285-0.02148zm0.82813 21.455a3.3315 3.3315 0 0 1 1.0039 0.28125 3.3315 3.3315 0 0 1 0.86524 0.58008 3.3315 3.3315 0 0 1 0.64648 0.81836 3.3315 3.3315 0 0 1 0.36133 0.97656 3.3315 3.3315 0 0 1 0.0547 0.39844 3.3315 3.3315 0 0 1 2e-3 0.02539 3.3315 3.3315 0 0 1 2e-3 0.02539 3.3315 3.3315 0 0 1 0 2e-3 3.3315 3.3315 0 0 1 0 2e-3 3.3315 3.3315 0 0 1 0 2e-3 3.3315 3.3315 0 0 1 0 2e-3 3.3315 3.3315 0 0 1 0 2e-3 3.3315 3.3315 0 0 1 0 2e-3 3.3315 3.3315 0 0 1 0 2e-3 3.3315 3.3315 0 0 1 0 2e-3 3.3315 3.3315 0 0 1 0 2e-3 3.3315 3.3315 0 0 1 0 2e-3 3.3315 3.3315 0 0 1 0 2e-3 3.3315 3.3315 0 0 1 0 2e-3 3.3315 3.3315 0 0 1 0 2e-3 3.3315 3.3315 0 0 1 2e-3 0.02344 3.3315 3.3315 0 0 1 2e-3 0.02539 3.3315 3.3315 0 0 1 0 2e-3 3.3315 3.3315 0 0 1 0 2e-3 3.3315 3.3315 0 0 1 0 2e-3 3.3315 3.3315 0 0 1 0 2e-3 3.3315 3.3315 0 0 1 0 2e-3 3.3315 3.3315 0 0 1 0 2e-3 3.3315 3.3315 0 0 1 0 2e-3 3.3315 3.3315 0 0 1 0 2e-3 3.3315 3.3315 0 0 1 0 2e-3 3.3315 3.3315 0 0 1 0 2e-3 3.3315 3.3315 0 0 1 0 2e-3 3.3315 3.3315 0 0 1 0 2e-3 3.3315 3.3315 0 0 1 0 2e-3 3.3315 3.3315 0 0 1 0 2e-3 3.3315 3.3315 0 0 1 0 2e-3 3.3315 3.3315 0 0 1 0 2e-3 3.3315 3.3315 0 0 1 0 2e-3 3.3315 3.3315 0 0 1 0 2e-3 3.3315 3.3315 0 0 1 0 2e-3 3.3315 3.3315 0 0 1 0 2e-3 3.3315 3.3315 0 0 1 0 2e-3 3.3315 3.3315 0 0 1 0 2e-3 3.3315 3.3315 0 0 1 0 2e-3 3.3315 3.3315 0 0 1 0 2e-3 3.3315 3.3315 0 0 1 0 2e-3 3.3315 3.3315 0 0 1 0 2e-3 3.3315 3.3315 0 0 1 2e-3 0.02539 3.3315 3.3315 0 0 1 0 2e-3 3.3315 3.3315 0 0 1 0 2e-3 3.3315 3.3315 0 0 1 0 2e-3 3.3315 3.3315 0 0 1 0 2e-3 3.3315 3.3315 0 0 1 0 2e-3 3.3315 3.3315 0 0 1 0 2e-3 3.3315 3.3315 0 0 1 0 2e-3 3.3315 3.3315 0 0 1 0 2e-3 3.3315 3.3315 0 0 1 0 2e-3 3.3315 3.3315 0 0 1 0 2e-3 3.3315 3.3315 0 0 1 0 2e-3 3.3315 3.3315 0 0 1 0 2e-3 3.3315 3.3315 0 0 1 0 2e-3 3.3315 3.3315 0 0 1 0 2e-3 3.3315 3.3315 0 0 1 0 2e-3 3.3315 3.3315 0 0 1 0 2e-3 3.3315 3.3315 0 0 1 0 2e-3 3.3315 3.3315 0 0 1 0 2e-3 3.3315 3.3315 0 0 1 0 2e-3 3.3315 3.3315 0 0 1 0 2e-3 3.3315 3.3315 0 0 1 0 2e-3 3.3315 3.3315 0 0 1 0 2e-3 3.3315 3.3315 0 0 1 0 2e-3 3.3315 3.3315 0 0 1 0 2e-3 3.3315 3.3315 0 0 1 0 2e-3 3.3315 3.3315 0 0 1 0 2e-3 3.3315 3.3315 0 0 1 0 2e-3 3.3315 3.3315 0 0 1 0 2e-3 3.3315 3.3315 0 0 1 0 2e-3 3.3315 3.3315 0 0 1 0 2e-3 3.3315 3.3315 0 0 1 0 2e-3 3.3315 3.3315 0 0 1 0 2e-3 3.3315 3.3315 0 0 1 0 2e-3 3.3315 3.3315 0 0 1 0 2e-3 3.3315 3.3315 0 0 1 0 2e-3 3.3315 3.3315 0 0 1 0 2e-3 3.3315 3.3315 0 0 1 0 2e-3 3.3315 3.3315 0 0 1 0 2e-3 3.3315 3.3315 0 0 1 0 2e-3 3.3315 3.3315 0 0 1 0 2e-3 3.3315 3.3315 0 0 1 0 2e-3 3.3315 3.3315 0 0 1 0 2e-3 3.3315 3.3315 0 0 1 0 2e-3 3.3315 3.3315 0 0 1 0 2e-3 3.3315 3.3315 0 0 1 0 2e-3 3.3315 3.3315 0 0 1 0 2e-3 3.3315 3.3315 0 0 1 0 2e-3 3.3315 3.3315 0 0 1 0 2e-3 3.3315 3.3315 0 0 1 0 2e-3 3.3315 3.3315 0 0 1 0 2e-3 3.3315 3.3315 0 0 1 0 2e-3 3.3315 3.3315 0 0 1-2e-3 0.02539 3.3315 3.3315 0 0 1 0 2e-3 3.3315 3.3315 0 0 1 0 2e-3 3.3315 3.3315 0 0 1 0 2e-3 3.3315 3.3315 0 0 1 0 2e-3 3.3315 3.3315 0 0 1 0 2e-3 3.3315 3.3315 0 0 1 0 2e-3 3.3315 3.3315 0 0 1 0 2e-3 3.3315 3.3315 0 0 1 0 2e-3 3.3315 3.3315 0 0 1 0 2e-3 3.3315 3.3315 0 0 1 0 2e-3 3.3315 3.3315 0 0 1 0 2e-3 3.3315 3.3315 0 0 1 0 2e-3 3.3315 3.3315 0 0 1 0 2e-3 3.3315 3.3315 0 0 1 0 2e-3 3.3315 3.3315 0 0 1 0 2e-3 3.3315 3.3315 0 0 1 0 2e-3 3.3315 3.3315 0 0 1 0 2e-3 3.3315 3.3315 0 0 1 0 2e-3 3.3315 3.3315 0 0 1 0 2e-3 3.3315 3.3315 0 0 1 0 2e-3 3.3315 3.3315 0 0 1 0 2e-3 3.3315 3.3315 0 0 1 0 2e-3 3.3315 3.3315 0 0 1 0 2e-3 3.3315 3.3315 0 0 1 0 2e-3 3.3315 3.3315 0 0 1 0 2e-3 3.3315 3.3315 0 0 1 0 2e-3 3.3315 3.3315 0 0 1-2e-3 0.02539 3.3315 3.3315 0 0 1-0.041 0.40039 3.3315 3.3315 0 0 1-0.0898 0.39258 3.3315 3.3315 0 0 1-0.13672 0.37695 3.3315 3.3315 0 0 1-0.18164 0.35938 3.3315 3.3315 0 0 1-0.22461 0.33594 3.3315 3.3315 0 0 1-0.26172 0.30469 3.3315 3.3315 0 0 1-0.29687 0.27148 3.3315 3.3315 0 0 1-0.32813 0.23438 3.3315 3.3315 0 0 1-0.35156 0.19141 3.3315 3.3315 0 0 1-0.375 0.14844 3.3315 3.3315 0 0 1-0.38867 0.10352 3.3315 3.3315 0 0 1-1.041 0.04102 3.3315 3.3315 0 0 1-1.0039-0.2832 3.3315 3.3315 0 0 1-0.86719-0.57812 3.3315 3.3315 0 0 1-0.64649-0.81836 3.3315 3.3315 0 0 1-0.36132-0.97656 3.3315 3.3315 0 0 1-0.041-1.043 3.3315 3.3315 0 0 1 0.2832-1.002 3.3315 3.3315 0 0 1 0.57813-0.86719 3.3315 3.3315 0 0 1 0.81836-0.64648 3.3315 3.3315 0 0 1 0.97851-0.36133 3.3315 3.3315 0 0 1 1.041-0.04102z" style="stroke-linecap:round;stroke-linejoin:round;stroke-width:3.0076"/>
</svg>
